<?xml version="1.0" encoding="UTF-8" standalone="no"?>
<svg
   xmlns:dc="http://purl.org/dc/elements/1.1/"
   xmlns:cc="http://creativecommons.org/ns#"
   xmlns:rdf="http://www.w3.org/1999/02/22-rdf-syntax-ns#"
   xmlns:svg="http://www.w3.org/2000/svg"
   xmlns="http://www.w3.org/2000/svg"
   height="63.535908"
   width="260.22098"
   id="svg11"
   version="1.1"
   viewBox="0 0 260.22098 63.535908"
   data-v-29081953="">
  <metadata
     id="metadata15">
    <rdf:RDF>
      <cc:Work
         rdf:about="">
        <dc:format>image/svg+xml</dc:format>
        <dc:type
           rdf:resource="http://purl.org/dc/dcmitype/StillImage" />
        <dc:title></dc:title>
      </cc:Work>
    </rdf:RDF>
  </metadata>
  <!---->
  <defs
     id="defs2"
     data-v-29081953="">
    <!---->
  </defs>
  <rect
     style="fill:#689d46;stroke-width:0.42860729"
     id="rect4"
     class="logo-background-square"
     height="63.535908"
     width="260.22098"
     y="0"
     x="0"
     data-v-29081953="" />
  <path
     style="fill:#762b21;fill-opacity:1;stroke-width:1.62868738"
     id="path4"
     d="m 55.317148,10.23754 c -12.65317,-0.13847 -27.563226,2.62153 -34.820337,14.20486 -3.754207,6.22441 -4.837488,13.74943 -4.135084,20.90288 -1.58493,2.72783 -6.032285,10.66071 -0.621127,9.82373 6.440436,-7.83227 13.110949,-4.13985 19.565468,-5.93017 10.267533,-2.21499 18.953888,-16.88089 19.755519,-21.2162 0.804975,-2.42053 2.75449,-11.14109 0.255561,-17.7851 z m -3.575551,4.26604 c -4.404295,5.85657 -12.772518,11.87905 -18.623568,15.86449 -4.980571,3.76516 -0.403199,-7.96923 2.053035,-10.28637 1.74248,-1.86781 6.062328,-5.52342 15.934384,-4.11571 z M 25.106161,26.24754 c 6.316814,-7.46244 -0.775062,15.98012 -4.322896,13.33664 -0.03903,-3.93435 1.312553,-10.59809 4.322896,-13.33664 z m 25.747244,1.1028 C 47.116635,36.8163 36.68644,47.64247 25.05317,44.83144 26.221926,40.83924 32.787675,34.43607 38.354117,31.3443 42.84783,28.48393 46.688881,26.91877 50.853405,27.35034 Z" />
  <defs
     id="defs6"
     data-v-29081953="">
    <!---->
  </defs>
  <g
     style="fill:#ebc416"
     transform="matrix(3.1424581,0,0,3.1424581,60.904685,-12.18628)"
     id="cabceaac-9430-4a8c-acdf-d92c7cfd52fa"
     data-v-29081953="">
    <path
       id="path8"
       d="m 7.29,13.68 v 0 q 1.12,0.21 1.75,0.86 v 0 0 q 0.63,0.65 0.63,1.63 v 0 0 q 0,0.87 -0.54,1.56 v 0 0 q -0.53,0.69 -1.5,1.08 v 0 0 q -0.97,0.38 -2.18,0.38 v 0 0 q -1.87,0 -2.88,-0.44 v 0 0 Q 1.55,18.3 1.55,17.49 v 0 0 q 0,-0.8 0.24,-2.45 v 0 0 q 0.23,-1.66 0.8,-4.93 v 0 L 2.16,9.25 v 0 Q 3.14,8.67 3.82,8.67 v 0 0 q 0.6,0 0.63,0.71 v 0 0 Q 5.91,8.65 7.21,8.65 v 0 0 q 1.12,0 1.77,0.58 v 0 0 q 0.65,0.57 0.65,1.56 v 0 0 q 0,0.9 -0.61,1.65 v 0 0 Q 8.41,13.19 7.29,13.68 Z M 4.34,10.3 v 0 q -0.28,1.32 -0.63,3.41 v 0 0 q 1.26,-0.09 2.18,-0.44 v 0 0 q 0.93,-0.35 1.43,-0.91 v 0 0 q 0.49,-0.57 0.49,-1.29 v 0 0 Q 7.81,9.86 6.4,9.86 v 0 0 q -1.04,0 -2.06,0.44 z m 1.02,7.86 v 0 q 1.15,0 1.83,-0.53 v 0 0 q 0.68,-0.54 0.68,-1.42 v 0 0 q 0,-0.87 -0.6,-1.35 v 0 0 Q 6.68,14.38 5.59,14.38 v 0 0 q -0.96,0 -2.01,0.26 v 0 0 q -0.23,1.61 -0.33,3.14 v 0 0 q 0.45,0.17 1.01,0.27 v 0 0 q 0.57,0.11 1.1,0.11 z m 13.95,-0.1 v 0 q 0,0.49 0.25,0.73 v 0 0 q -0.44,0.39 -0.94,0.39 v 0 0 q -0.48,0 -0.73,-0.29 v 0 0 q -0.25,-0.3 -0.25,-0.86 v 0 0 q 0,-0.31 0.1,-0.84 v 0 L 17.6,17.12 v 0 q -0.51,0.98 -1.27,1.52 v 0 0 q -0.76,0.54 -1.66,0.54 v 0 0 q -0.75,0 -1.33,-0.41 v 0 0 q -0.59,-0.4 -0.9,-1.15 v 0 0 q -0.32,-0.75 -0.32,-1.73 v 0 0 q 0,-1.51 0.72,-2.76 v 0 0 q 0.71,-1.26 1.94,-1.98 v 0 0 q 1.24,-0.72 2.72,-0.72 v 0 0 q 0.64,0 1.32,0.11 v 0 0 q 0.09,0.17 0.15,0.45 v 0 0 q 0.29,-0.21 0.67,-0.21 v 0 0 q 0.35,0 0.56,0.17 v 0 0 q 0.2,0.17 0.2,0.46 v 0 0 q 0,0.32 -0.09,0.77 v 0 0 q -0.09,0.45 -0.3,1.32 v 0 0 q -0.34,1.41 -0.52,2.45 v 0 0 q -0.18,1.03 -0.18,2.11 z m -3.97,-0.2 v 0 q 1.31,0 2.15,-1.65 v 0 0 q 0.84,-1.66 1.26,-5.01 v 0 0 q -1.52,0.04 -2.63,0.67 v 0 0 q -1.11,0.62 -1.69,1.65 v 0 0 q -0.58,1.04 -0.58,2.33 v 0 0 q 0,0.95 0.39,1.48 v 0 0 q 0.39,0.53 1.1,0.53 z m 14.07,-6.62 v 0 q 0,0.76 -1.02,1.08 v 0 l -3.47,4.94 0.55,0.17 v 0 q 0.75,0.22 1.12,0.32 v 0 0 q 0.37,0.09 0.68,0.09 v 0 l 1.4,-0.75 v 0 q 0.3,0.49 0.3,0.89 v 0 0 q 0,0.51 -0.5,0.86 v 0 0 q -0.5,0.34 -1.2,0.34 v 0 0 q -0.78,0 -1.46,-0.17 v 0 0 q -0.68,-0.17 -1.69,-0.53 v 0 0 q -0.35,0.32 -0.65,0.46 v 0 0 q -0.3,0.14 -0.65,0.14 v 0 0 q -0.38,0 -0.59,-0.24 v 0 0 q -0.22,-0.25 -0.22,-0.6 v 0 0 q 0,-0.45 0.36,-0.8 v 0 0 q 0.37,-0.36 1.04,-0.43 v 0 l 3.12,-4.45 v 0 q -0.15,0.01 -0.49,0.01 v 0 0 q -1.15,-0.01 -1.82,-0.15 v 0 0 q -0.67,-0.14 -0.99,-0.45 v 0 0 q -0.31,-0.31 -0.31,-0.84 v 0 0 q 0,-0.25 0.15,-0.77 v 0 0 q 0.91,0.38 2.14,0.7 v 0 0 q 1.22,0.32 1.88,0.35 v 0 0 q 0.2,-0.43 0.57,-0.71 v 0 0 q 0.38,-0.27 0.79,-0.27 v 0 0 q 0.45,0 0.71,0.22 v 0 0 q 0.25,0.21 0.25,0.59 z m 8.78,-0.81 v 0 q 0.72,0 0.72,0.84 v 0 0 q 0,2.27 -1.01,4.69 v 0 0 q -1.01,2.42 -2.84,4.05 v 0 0 q -1.82,1.62 -4.16,1.62 v 0 0 q -0.88,0 -1.32,-0.31 v 0 0 q -0.43,-0.31 -0.43,-0.84 v 0 0 q 0,-0.19 0.08,-0.41 v 0 0 q 0.09,-0.22 0.2,-0.39 v 0 0 q 0.29,0.34 0.68,0.55 v 0 0 q 0.4,0.21 1.11,0.21 v 0 0 q 0.63,0 1.44,-0.31 v 0 0 q 0.8,-0.32 1.57,-0.96 v 0 0 q -1.02,-0.09 -1.52,-0.73 v 0 0 q -0.5,-0.65 -0.62,-1.52 v 0 0 Q 31.96,16.04 31.92,14.6 v 0 0 q -0.03,-1.06 -0.08,-1.69 v 0 0 Q 31.78,12.28 31.6,11.7 v 0 0 q -0.18,-0.57 -0.58,-0.92 v 0 0 q 0.45,-0.35 0.97,-0.35 v 0 0 q 0.74,0 1.09,0.53 v 0 0 q 0.34,0.52 0.42,1.28 v 0 0 q 0.07,0.77 0.07,2.08 v 0 0 q 0.02,1.28 0.09,2.03 v 0 0 q 0.07,0.76 0.36,1.36 v 0 0 q 0.29,0.6 0.92,0.77 v 0 0 q 1.05,-1.12 1.68,-2.85 v 0 0 q 0.62,-1.73 0.62,-4.08 v 0 0 q 0,-0.57 -0.03,-0.77 v 0 0 q 0.32,-0.2 0.53,-0.27 v 0 0 q 0.21,-0.08 0.45,-0.08 z m 3.36,8.75 v 0 q -0.87,0 -0.87,-1.11 v 0 0 q 0,-0.68 0.46,-3.59 v 0 0 q 0.45,-2.92 0.87,-5.2 v 0 L 41.4,8.58 v 0 Q 41.72,8.3 42.17,8.14 v 0 0 q 0.46,-0.16 0.84,-0.16 v 0 0 q 0.39,0 0.56,0.18 v 0 0 q 0.17,0.17 0.17,0.59 v 0 0 q 0,0.24 -0.17,1.04 v 0 0 q -0.17,0.81 -0.21,1.05 v 0 0 q -0.46,2.25 -0.75,3.99 v 0 0 q -0.29,1.75 -0.29,3.1 v 0 0 q 0,0.27 0.08,0.5 v 0 0 q 0.08,0.23 0.2,0.36 v 0 0 q -0.43,0.39 -1.05,0.39 z m 6.62,-9.94 v 0 q -0.44,0 -0.71,-0.22 v 0 0 Q 47.19,8.81 47.19,8.44 v 0 0 q 0,-0.42 0.35,-0.73 v 0 0 q 0.35,-0.32 0.9,-0.32 v 0 0 q 0.46,0 0.72,0.22 v 0 0 q 0.26,0.22 0.26,0.57 v 0 0 q 0,0.44 -0.35,0.75 v 0 0 q -0.35,0.31 -0.9,0.31 z m -1.24,9.94 v 0 q -0.48,0 -0.72,-0.24 v 0 0 Q 45.98,18.7 45.98,18.19 v 0 0 q 0,-0.58 0.27,-2.05 v 0 0 q 0.27,-1.47 0.93,-4.42 v 0 l -0.62,-0.7 v 0 q 0.34,-0.27 0.78,-0.43 v 0 0 q 0.44,-0.16 0.81,-0.16 v 0 0 q 0.42,0 0.59,0.18 v 0 0 q 0.18,0.17 0.18,0.59 v 0 0 q 0,0.11 -0.27,1.2 v 0 0 q -0.43,1.78 -0.72,3.22 v 0 0 q -0.29,1.45 -0.29,2.44 v 0 0 q 0,0.53 0.25,0.74 v 0 0 q -0.46,0.38 -0.96,0.38 z M 57.02,16.6 v 0 q 0.39,0.7 0.78,1.11 v 0 0 q 0.38,0.41 1.06,0.66 v 0 0 q -0.24,0.39 -0.58,0.6 v 0 0 q -0.35,0.21 -0.73,0.21 v 0 0 q -0.54,0 -0.93,-0.33 v 0 0 q -0.38,-0.33 -0.86,-1.2 v 0 l -1.24,-2.26 -1.45,0.91 v 0 Q 53,17.21 53,17.93 v 0 0 q 0,0.27 0.08,0.5 v 0 0 q 0.08,0.23 0.2,0.36 v 0 0 q -0.43,0.39 -1.05,0.39 v 0 0 q -0.86,0 -0.86,-1.11 v 0 0 q 0,-0.68 0.45,-3.59 v 0 0 q 0.46,-2.92 0.88,-5.2 v 0 l -0.62,-0.7 v 0 Q 52.4,8.3 52.86,8.14 v 0 0 q 0.45,-0.16 0.83,-0.16 v 0 0 q 0.39,0 0.56,0.18 v 0 0 q 0.17,0.17 0.17,0.59 v 0 0 q 0,0.28 -0.09,0.76 v 0 0 q -0.09,0.49 -0.3,1.38 v 0 0 q -0.65,2.69 -0.86,4.52 v 0 l 1.46,-1.14 v 0 q 1.01,-0.84 1.59,-1.59 v 0 0 Q 56.8,11.93 56.8,11.2 v 0 0 q 0,-0.21 -0.07,-0.46 v 0 0 q 0.19,-0.16 0.44,-0.23 v 0 0 q 0.24,-0.08 0.48,-0.08 v 0 0 q 0.41,0 0.65,0.25 v 0 0 q 0.23,0.25 0.23,0.69 v 0 0 q 0,1.44 -2.66,3.15 v 0 z" />
  </g>
  <!---->
  <!---->
</svg>
